<svg viewBox="0 0 124 32" xmlns="http://www.w3.org/2000/svg">
<path d="M30.9963 31.892C29.4488 31.892 28.1905 31.6679 27.2215 31.2195C26.2525 30.7594 25.5077 30.1104 24.9871 29.2727C24.4664 28.435 24.1048 27.4498 23.9024 26.3171C23.7143 25.1727 23.6203 23.9102 23.6203 22.5297V19.5033H27.9808V22.6713C27.9808 24.8541 28.1688 26.4174 28.5449 27.3613C28.9354 28.2934 29.767 28.7595 31.0397 28.7595C31.9219 28.7595 32.5655 28.5943 32.9704 28.2639C33.3898 27.9218 33.6574 27.379 33.7731 26.6357C33.8888 25.8924 33.9466 24.9131 33.9466 23.6978C33.9466 22.3056 33.6429 21.108 33.0355 20.1051C32.4425 19.1022 31.582 18.1406 30.4539 17.2203L27.9591 15.185C27.236 14.5833 26.5273 13.9284 25.8331 13.2205C25.1389 12.5008 24.5604 11.6867 24.0976 10.7782C23.6493 9.86966 23.4251 8.83137 23.4251 7.66329C23.4251 6.09406 23.6276 4.7372 24.0325 3.59272C24.4375 2.44824 25.1751 1.56334 26.2453 0.938001C27.3155 0.312667 28.8341 0 30.801 0C32.3485 0 33.5851 0.218277 34.5107 0.654831C35.4508 1.09139 36.1522 1.71672 36.615 2.53083C37.0923 3.33315 37.4032 4.28885 37.5478 5.39793C37.7069 6.50702 37.7865 7.73409 37.7865 9.07914V10.9198H33.4911V8.83137C33.4911 7.5689 33.426 6.51881 33.2958 5.6811C33.1801 4.83159 32.9343 4.19446 32.5582 3.7697C32.1822 3.34495 31.5965 3.13257 30.801 3.13257C30.0779 3.13257 29.4849 3.28005 29.0221 3.57502C28.5738 3.85819 28.2484 4.30065 28.0459 4.90238C27.8434 5.50412 27.7422 6.27694 27.7422 7.22084C27.7422 8.04675 27.8651 8.73108 28.111 9.27382C28.3568 9.80477 28.7256 10.3003 29.2174 10.7605C29.7236 11.2206 30.3382 11.7634 31.0614 12.3887L33.6646 14.6364C35.0386 15.8044 36.1594 17.1141 37.0272 18.5653C37.9094 20.0048 38.3505 21.6802 38.3505 23.5916C38.3505 25.3142 38.1408 26.795 37.7214 28.0339C37.3164 29.2727 36.5861 30.2284 35.5303 30.9009C34.4745 31.5617 32.9632 31.892 30.9963 31.892Z" fill="url(#paint0_linear_57_584)"/>
<path fill-rule="evenodd" clip-rule="evenodd" d="M0 31.5381V0.389359H8.00506C10.0298 0.389359 11.5267 0.684328 12.4957 1.27427C13.4647 1.85241 14.0938 2.73141 14.3831 3.91129C14.6868 5.07937 14.8386 6.55421 14.8386 8.33582C14.8386 10.259 14.6 11.787 14.1227 12.9196C13.6455 14.0523 12.7199 14.7838 11.3459 15.1142C12.0401 15.2086 12.6114 15.4505 13.0597 15.8398C13.5225 16.2292 13.8841 16.8368 14.1444 17.6627C14.4048 18.4887 14.5855 19.5977 14.6868 20.99C14.8025 22.3704 14.8603 24.1108 14.8603 26.2109V27.0782C14.8603 27.4557 14.8676 27.8687 14.882 28.317C14.8965 28.7654 14.911 29.2078 14.9254 29.6444C14.9543 30.0809 14.9905 30.4703 15.0339 30.8125C15.0773 31.1428 15.1351 31.3847 15.2074 31.5381H10.7385C10.6806 31.4319 10.63 31.1959 10.5866 30.8302C10.5432 30.4644 10.5071 29.9806 10.4782 29.3789C10.4492 28.7772 10.4275 28.0633 10.4131 27.2374C10.3986 26.3997 10.3914 25.4676 10.3914 24.4411V21.0431C10.3914 19.8632 10.3263 18.9665 10.1961 18.353C10.0804 17.7276 9.79119 17.297 9.32839 17.061C8.88005 16.8132 8.15691 16.6657 7.15899 16.6186L4.49064 16.4947V31.5381H0ZM4.49064 13.8045H7.35424C8.17861 13.8045 8.80773 13.6748 9.24161 13.4152C9.68995 13.1438 9.99367 12.6129 10.1528 11.8224C10.3118 11.02 10.3914 9.82247 10.3914 8.22963V8.01726C10.3914 6.6958 10.3118 5.6988 10.1528 5.02627C10.0081 4.34194 9.71888 3.88179 9.285 3.64582C8.85112 3.40984 8.19307 3.29185 7.31085 3.29185H4.49064V13.8045Z" fill="url(#paint1_linear_57_584)"/>
<path d="M76.701 0H47.299C46.5919 0 46.0206 0.57007 46.0206 1.27568V30.6164C46.0206 31.322 46.5919 31.892 47.299 31.892H67.1134V29.0218H48.8969V2.87028H75.1031V21.0488H77.9794V1.27568C77.9794 0.57007 77.4081 0 76.701 0Z" fill="url(#paint2_linear_57_584)"/>
<path d="M52.732 25.5136H55.9278C56.1036 25.5136 56.2474 25.3701 56.2474 25.1947V6.69733C56.2474 6.52192 56.1036 6.37841 55.9278 6.37841H52.732C52.5562 6.37841 52.4124 6.52192 52.4124 6.69733V25.1947C52.4124 25.3701 52.5562 25.5136 52.732 25.5136Z" fill="url(#paint3_linear_57_584)"/>
<path d="M63.5979 14.3514H60.4021C60.2263 14.3514 60.0825 14.2079 60.0825 14.0325V6.69733C60.0825 6.52192 60.2263 6.37841 60.4021 6.37841H63.5979C63.7737 6.37841 63.9175 6.52192 63.9175 6.69733V14.0325C63.9175 14.2079 63.7737 14.3514 63.5979 14.3514Z" fill="url(#paint4_linear_57_584)"/>
<path d="M71.268 17.2217H68.0722C67.8964 17.2217 67.7526 17.0782 67.7526 16.9028V6.69733C67.7526 6.52192 67.8964 6.37841 68.0722 6.37841H71.268C71.4438 6.37841 71.5876 6.52192 71.5876 6.69733V16.9028C71.5876 17.0782 71.4438 17.2217 71.268 17.2217Z" fill="url(#paint5_linear_57_584)"/>
<path fill-rule="evenodd" clip-rule="evenodd" d="M70.1122 22.2774C70.2962 22.1249 70.3771 21.8762 70.2948 21.6483C70.2434 21.511 70.187 21.376 70.1228 21.2457L70.0516 21.105C69.9825 20.9745 69.9058 20.8463 69.8238 20.7229C69.6903 20.5233 69.4439 20.4487 69.2162 20.5152L68.503 20.7208C68.2462 20.4852 67.9477 20.2886 67.6243 20.1494L67.5049 19.4051C67.468 19.1665 67.2969 18.9704 67.0638 18.9321C66.8954 18.9017 66.7264 18.8841 66.5544 18.8765C66.3824 18.8689 66.2125 18.8717 66.0446 18.8847C65.8091 18.9023 65.6213 19.0852 65.5636 19.3171L65.3788 20.0506C65.0417 20.1632 64.7297 20.3304 64.4531 20.5425L63.7582 20.2774C63.5372 20.1912 63.2852 20.2438 63.1346 20.4309C63.0421 20.5466 62.9543 20.6676 62.8715 20.7914L62.7907 20.9229C62.7153 21.047 62.6472 21.1765 62.5838 21.3113C62.4818 21.5286 62.5404 21.7834 62.7102 21.954L63.2412 22.482C63.2062 22.6512 63.1834 22.8286 63.1754 23.0092C63.1674 23.1898 63.1745 23.3685 63.1943 23.5427L62.6188 24.0219C62.4347 24.1744 62.3538 24.4231 62.4361 24.651C62.4875 24.7883 62.5439 24.9233 62.608 25.0561L62.6769 25.1917C62.7459 25.3247 62.8228 25.4504 62.9072 25.5739C63.0407 25.7735 63.2871 25.848 63.5148 25.7816L64.2281 25.576C64.4848 25.8116 64.7833 26.0082 65.1067 26.1473L65.226 26.8942C65.2629 27.1328 65.434 27.3289 65.6671 27.3672C65.8332 27.3949 66.0022 27.4126 66.1741 27.4201C66.3461 27.4277 66.516 27.425 66.6839 27.412C66.9194 27.3943 67.1073 27.2115 67.165 26.9795L67.3497 26.2461C67.6868 26.1335 67.9988 25.9663 68.2754 25.7542L68.9678 26.0217C69.1887 26.1079 69.4407 26.0553 69.5913 25.8682C69.6838 25.7525 69.7715 25.634 69.852 25.5076L69.9353 25.3737C70.0107 25.2496 70.0789 25.12 70.1421 24.9878C70.2441 24.7705 70.1855 24.5156 70.0157 24.3451L69.4847 23.8171C69.5198 23.6453 69.5426 23.4679 69.5506 23.2874C69.5586 23.1068 69.5515 22.9281 69.5318 22.7539L70.1073 22.2746L70.1122 22.2774ZM67.5617 23.2023C67.5319 23.8764 66.9719 24.3996 66.3115 24.3705C65.651 24.3415 65.1394 23.771 65.1692 23.097C65.199 22.4229 65.759 21.8997 66.4194 21.9288C67.0799 21.9578 67.5915 22.5283 67.5617 23.2023Z" fill="url(#paint6_linear_57_584)"/>
<path fill-rule="evenodd" clip-rule="evenodd" d="M75.2072 31.9668C74.9838 32.0513 74.7402 31.9692 74.5912 31.7817L74.5939 31.7767L74.1254 31.1903C73.9547 31.2108 73.7796 31.2184 73.6026 31.2106C73.4257 31.2028 73.2519 31.1799 73.0836 31.1444L72.5652 31.6874C72.3977 31.8609 72.1479 31.9213 71.9352 31.8176C71.8057 31.7533 71.6789 31.684 71.5575 31.6073L71.4264 31.5225C71.3026 31.4406 71.1867 31.3514 71.0735 31.2573C70.8905 31.1039 70.8395 30.8468 70.9243 30.6212L71.1878 29.9141C70.9806 29.6323 70.8173 29.3142 70.7077 28.9704L69.9893 28.7834C69.7622 28.7249 69.5833 28.5336 69.5665 28.2933C69.5541 28.122 69.5518 27.9486 69.5595 27.7731C69.5673 27.5976 69.5849 27.4251 69.6124 27.2555C69.6504 27.0176 69.8429 26.8426 70.0768 26.8045L70.8088 26.6838C70.9457 26.3534 71.139 26.0485 71.3704 25.786L71.1703 25.0585C71.1057 24.8263 71.1792 24.5747 71.375 24.438C71.4962 24.3516 71.6195 24.273 71.75 24.2023L71.883 24.1317C72.0132 24.066 72.1457 24.0082 72.2803 23.9555C72.5038 23.871 72.7474 23.9531 72.8964 24.1406L73.3649 24.727C73.5356 24.7065 73.7107 24.6989 73.8877 24.7067C74.0646 24.7145 74.2384 24.7374 74.4066 24.7729L74.9251 24.2299C75.0926 24.0564 75.3424 23.996 75.5551 24.0997C75.6871 24.1641 75.8139 24.2334 75.9353 24.3101L76.064 24.3922C76.1852 24.4765 76.3036 24.5659 76.4168 24.66C76.5998 24.8134 76.6508 25.0705 76.5659 25.2961L76.3025 26.0032C76.5097 26.285 76.673 26.6031 76.7826 26.9468L77.5009 27.1365C77.728 27.1949 77.9068 27.3863 77.9237 27.6266C77.9361 27.7979 77.9384 27.9713 77.9306 28.1468C77.9229 28.3223 77.9053 28.4948 77.8778 28.6643C77.8398 28.9022 77.6473 29.0772 77.4134 29.1153L76.6813 29.2386C76.5443 29.5689 76.3511 29.8739 76.1197 30.1364L76.3198 30.8639C76.3844 31.0961 76.3109 31.3477 76.115 31.4843C75.994 31.5682 75.8681 31.6468 75.7401 31.7176L75.6021 31.7905C75.4743 31.8562 75.3419 31.9141 75.2072 31.9668ZM72.5476 27.9072C72.5178 28.5812 73.0294 29.1517 73.6899 29.1808C74.3503 29.2098 74.9103 28.6866 74.9401 28.0125C74.9699 27.3385 74.4583 26.7681 73.7978 26.739C73.1374 26.7099 72.5774 27.2332 72.5476 27.9072Z" fill="url(#paint7_linear_57_584)"/>
<path fill-rule="evenodd" clip-rule="evenodd" d="M85.6495 0V31.892H89.4175V19.3708H92.0934C93.7074 19.3708 94.9453 19.0084 95.8069 18.2836C96.6806 17.5467 97.2813 16.4534 97.609 15.0038C97.9488 13.5541 98.1187 11.7602 98.1187 9.62198V9.13272C98.1187 7.73141 98.0398 6.46901 97.882 5.34554C97.7364 4.22207 97.4512 3.26169 97.0265 2.46439C96.6017 1.66708 95.9889 1.05703 95.188 0.634217C94.3992 0.211406 93.3676 0 92.0934 0H85.6495ZM91.7112 16.2541H89.4175V2.97176H91.8022C92.8822 2.97176 93.58 3.46705 93.8955 4.45764C94.2111 5.43614 94.3688 6.95222 94.3688 9.00588V9.62198C94.3688 11.277 94.296 12.5877 94.1504 13.5541C94.0169 14.5205 93.762 15.2152 93.3858 15.638C93.0096 16.0487 92.4514 16.2541 91.7112 16.2541Z" fill="url(#paint8_linear_57_584)"/>
<path d="M105.651 0V31.892H108.855V19.8238L108.545 7.90053L113.57 31.892H116.264L121.087 7.90053L120.778 19.8238V31.892H124V0H119.649L114.935 25.4955L109.984 0H105.651Z" fill="url(#paint9_linear_57_584)"/>
<defs>
<linearGradient id="paint0_linear_57_584" x1="62" y1="0" x2="62" y2="32" gradientUnits="userSpaceOnUse">
<stop stop-color="#7018DF"/>
<stop offset="0.479167" stop-color="#D04BFF"/>
<stop offset="1" stop-color="#BE97FD"/>
</linearGradient>
<linearGradient id="paint1_linear_57_584" x1="62" y1="0" x2="62" y2="32" gradientUnits="userSpaceOnUse">
<stop stop-color="#7018DF"/>
<stop offset="0.479167" stop-color="#D04BFF"/>
<stop offset="1" stop-color="#BE97FD"/>
</linearGradient>
<linearGradient id="paint2_linear_57_584" x1="62" y1="0" x2="62" y2="32" gradientUnits="userSpaceOnUse">
<stop stop-color="#7018DF"/>
<stop offset="0.479167" stop-color="#D04BFF"/>
<stop offset="1" stop-color="#BE97FD"/>
</linearGradient>
<linearGradient id="paint3_linear_57_584" x1="62" y1="0" x2="62" y2="32" gradientUnits="userSpaceOnUse">
<stop stop-color="#7018DF"/>
<stop offset="0.479167" stop-color="#D04BFF"/>
<stop offset="1" stop-color="#BE97FD"/>
</linearGradient>
<linearGradient id="paint4_linear_57_584" x1="62" y1="0" x2="62" y2="32" gradientUnits="userSpaceOnUse">
<stop stop-color="#7018DF"/>
<stop offset="0.479167" stop-color="#D04BFF"/>
<stop offset="1" stop-color="#BE97FD"/>
</linearGradient>
<linearGradient id="paint5_linear_57_584" x1="62" y1="0" x2="62" y2="32" gradientUnits="userSpaceOnUse">
<stop stop-color="#7018DF"/>
<stop offset="0.479167" stop-color="#D04BFF"/>
<stop offset="1" stop-color="#BE97FD"/>
</linearGradient>
<linearGradient id="paint6_linear_57_584" x1="62" y1="0" x2="62" y2="32" gradientUnits="userSpaceOnUse">
<stop stop-color="#7018DF"/>
<stop offset="0.479167" stop-color="#D04BFF"/>
<stop offset="1" stop-color="#BE97FD"/>
</linearGradient>
<linearGradient id="paint7_linear_57_584" x1="62" y1="0" x2="62" y2="32" gradientUnits="userSpaceOnUse">
<stop stop-color="#7018DF"/>
<stop offset="0.479167" stop-color="#D04BFF"/>
<stop offset="1" stop-color="#BE97FD"/>
</linearGradient>
<linearGradient id="paint8_linear_57_584" x1="62" y1="0" x2="62" y2="32" gradientUnits="userSpaceOnUse">
<stop stop-color="#7018DF"/>
<stop offset="0.479167" stop-color="#D04BFF"/>
<stop offset="1" stop-color="#BE97FD"/>
</linearGradient>
<linearGradient id="paint9_linear_57_584" x1="62" y1="0" x2="62" y2="32" gradientUnits="userSpaceOnUse">
<stop stop-color="#7018DF"/>
<stop offset="0.479167" stop-color="#D04BFF"/>
<stop offset="1" stop-color="#BE97FD"/>
</linearGradient>
</defs>
</svg>
