<svg width="87" height="32" viewBox="0 0 87 32" fill="none" xmlns="http://www.w3.org/2000/svg">
<g clip-path="url(#clip0_57_586)">
<path d="M20.4745 25.9813L24.2539 27.1345C24.0508 28.0981 23.6292 29.0143 23.0513 29.82C22.5203 30.5309 21.8176 31.0838 21.0211 31.4471C20.209 31.8104 19.1782 32 17.9288 32C16.4139 32 15.1646 31.7788 14.2119 31.3365C13.2436 30.8942 12.4159 30.1043 11.7131 28.9828C11.0103 27.8612 10.6667 26.4236 10.6667 24.6702C10.6667 22.3322 11.2758 20.5313 12.5096 19.2834C13.7434 18.0354 15.4769 17.4035 17.7258 17.4035C19.4906 17.4035 20.8649 17.7668 21.88 18.4777C22.8795 19.2044 23.6292 20.3102 24.1289 21.7951L20.3183 22.6481C20.2246 22.3164 20.084 21.9847 19.8966 21.7003C19.6624 21.3686 19.3656 21.1158 19.0064 20.9262C18.6472 20.7367 18.2412 20.6577 17.8351 20.6577C16.8512 20.6577 16.1016 21.0526 15.5862 21.8583C15.1958 22.4428 14.9928 23.3748 14.9928 24.6386C14.9928 26.2025 15.227 27.2767 15.6955 27.8612C16.1641 28.4457 16.82 28.73 17.6789 28.73C18.5067 28.73 19.1314 28.493 19.553 28.0349C19.9747 27.5452 20.2871 26.8659 20.4745 25.9813ZM29.2983 17.6405H33.6087V22.5849H38.3251V17.6405H42.6667V31.763H38.3251V26.0445H33.6087V31.763H29.2983V17.6405V17.6405Z" fill="white"/>
<path d="M75.2439 17.9649H79.6209V28.5462H86.4561V32H75.228V17.9649H75.2439Z" fill="white"/>
<path d="M70.9326 17.1993C75.2581 13.9235 76.5781 8.35215 73.881 4.75528C71.1838 1.15841 65.4908 0.898124 61.1653 4.17392C56.8398 7.44972 55.5197 13.0211 58.2169 16.618C60.914 20.2149 66.607 20.4751 70.9326 17.1993Z" stroke="white" stroke-width="4" stroke-miterlimit="10"/>
<path d="M61.3448 9.65911L62.8643 8.56162L64.7333 11.3053C65.0524 11.7443 65.2955 12.2147 65.4778 12.7321C65.5842 13.124 65.5538 13.5474 65.4019 13.9236C65.2043 14.394 64.8852 14.786 64.4598 15.0682C63.9584 15.4288 63.5329 15.6326 63.1682 15.6953C62.8187 15.758 62.4541 15.6953 62.1198 15.5385C61.7551 15.3504 61.436 15.0838 61.1929 14.7389L62.4996 13.4846C62.606 13.6571 62.7428 13.8139 62.8947 13.9393C63.0011 14.0177 63.1226 14.0647 63.2594 14.0647C63.3657 14.0647 63.4721 14.0177 63.5481 13.955C63.7 13.8609 63.8064 13.6728 63.7912 13.4846C63.7456 13.2181 63.6393 12.9516 63.4721 12.7478L61.3448 9.65911V9.65911ZM65.9033 11.3994L67.286 10.2706C67.438 10.4587 67.6355 10.5998 67.8483 10.6782C68.1522 10.7723 68.4713 10.7096 68.7296 10.5057C68.9119 10.3803 69.0639 10.2079 69.1246 9.98836C69.2158 9.70615 69.0639 9.39258 68.7903 9.29851C68.7448 9.28283 68.6992 9.26715 68.6536 9.26715C68.4713 9.25147 68.1522 9.32986 67.6811 9.53368C66.9062 9.86293 66.2984 9.98836 65.8425 9.94132C65.4019 9.89429 64.9916 9.65911 64.7485 9.26715C64.5661 9.00062 64.475 8.68705 64.4598 8.37348C64.4598 8.01287 64.551 7.65227 64.7485 7.35438C65.0372 6.93106 65.3867 6.57046 65.8121 6.28825C66.4503 5.83357 67.0125 5.61407 67.4988 5.61407C67.985 5.61407 68.4409 5.84925 68.8663 6.33528L67.4988 7.44845C67.2253 7.08785 66.7086 7.00946 66.3592 7.29167L66.3136 7.3387C66.1616 7.43277 66.0553 7.57388 65.9945 7.74634C65.9489 7.87177 65.9793 8.01287 66.0553 8.12262C66.116 8.20102 66.2072 8.26373 66.3136 8.26373C66.4351 8.27941 66.6479 8.21669 66.9518 8.07559C67.7115 7.74634 68.2889 7.5582 68.684 7.49549C69.0183 7.43277 69.3678 7.46413 69.6868 7.60524C69.9756 7.73066 70.2187 7.95016 70.3858 8.21669C70.5985 8.53026 70.7201 8.90654 70.7353 9.29851C70.7505 9.70614 70.6441 10.0981 70.4314 10.443C70.1579 10.8663 69.8084 11.227 69.3981 11.5092C68.5624 12.1049 67.8786 12.3558 67.3316 12.2617C66.739 12.1677 66.2528 11.8541 65.9033 11.3994V11.3994Z" fill="white"/>
<path fill-rule="evenodd" clip-rule="evenodd" d="M62.9575 19.1282C64.9741 19.2551 67.1627 18.7036 69.1457 17.4575C70.9168 17.6347 72.322 18.2479 73.3526 19.2971C74.5925 20.5595 75.228 22.3269 75.228 24.5992C75.228 26.2561 74.949 27.5974 74.4066 28.6546C73.8796 29.6961 73.0581 30.5482 72.0506 31.1163C71.0121 31.7002 69.7256 32 68.1912 32C66.6257 32 65.3392 31.7475 64.3163 31.2426C63.2623 30.706 62.3943 29.8697 61.8208 28.844C61.1853 27.7394 60.8598 26.3665 60.8598 24.7096C60.8598 22.4058 61.4953 20.6068 62.7508 19.3287C62.8182 19.26 62.8871 19.1932 62.9575 19.1282ZM65.9127 27.8025C65.4012 27.1713 65.1377 26.1456 65.1377 24.7254C65.1377 23.2894 65.4012 22.2637 65.9282 21.6483C66.4397 21.0329 67.2147 20.6857 68.0052 20.7173C68.9042 20.7173 69.6172 21.0171 70.1441 21.6325C70.6711 22.2322 70.9346 23.2105 70.9346 24.5361C70.9346 26.1141 70.6866 27.2029 70.1751 27.8183C69.6637 28.4337 68.9507 28.7335 68.0362 28.7335C67.1372 28.7335 66.4242 28.4179 65.9127 27.8025Z" fill="white"/>
<path fill-rule="evenodd" clip-rule="evenodd" d="M43.9962 19.3287C42.7407 20.6068 42.1052 22.4058 42.1052 24.7096C42.1052 26.3665 42.4307 27.7394 43.0662 28.844C43.6397 29.8697 44.5077 30.706 45.5617 31.2426C46.5846 31.7475 47.8711 32 49.4366 32C50.971 32 52.2575 31.7002 53.296 31.1163C54.3035 30.5482 55.125 29.6961 55.6519 28.6546C56.1944 27.5974 56.4734 26.2561 56.4734 24.5992C56.4734 22.3269 55.8534 20.5595 54.598 19.2971C53.3425 18.0347 51.5755 17.4035 49.2661 17.4035C47.0186 17.4035 45.2517 18.0505 43.9962 19.3287ZM47.1581 27.8025C46.6466 27.1713 46.3831 26.1456 46.3831 24.7254C46.3831 23.2894 46.6466 22.2637 47.1736 21.6483C47.7006 21.0329 48.4601 20.6857 49.2506 20.7173C50.1496 20.7173 50.8625 21.0171 51.3895 21.6325C51.9165 22.2322 52.18 23.2105 52.18 24.5361C52.18 26.1141 51.932 27.2029 51.4205 27.8183C50.909 28.4337 50.1961 28.7335 49.2816 28.7335C48.3826 28.7335 47.6696 28.4179 47.1581 27.8025Z" fill="white"/>
<path d="M48.432 10.3953L44.3455 10.6593C44.4542 12.0572 44.9981 13.2065 45.9148 14.1229C46.8315 15.0393 48.463 15.4897 50.8248 15.4897C52.1611 15.4897 53.2798 15.2878 54.1655 14.8995C54.9886 14.549 55.6922 13.9743 56.2027 13.2341C56.0332 11.9226 56.2092 10.5363 56.7018 9.19447C56.6272 9.00879 56.5378 8.82864 56.434 8.65572C56.0767 8.04998 55.4862 7.53743 54.6627 7.11807C53.8392 6.69872 52.5029 6.29489 50.6228 5.89106C49.8615 5.73574 49.3798 5.56489 49.1778 5.37851C48.9913 5.23873 48.867 5.02128 48.867 4.7883C48.8515 4.47767 49.0069 4.1981 49.2399 4.01172C49.4885 3.8098 49.8615 3.70108 50.3587 3.70108C50.9647 3.70108 51.4308 3.84087 51.7882 4.13597C52.1455 4.43107 52.3631 4.8815 52.4718 5.50277L56.5117 5.26979C56.3408 3.82533 55.7814 2.76917 54.8492 2.11684C53.9169 1.44897 52.5651 1.1228 50.7937 1.1228C49.3487 1.1228 48.1989 1.30918 47.3754 1.66642C46.614 1.96152 45.977 2.4896 45.5108 3.15747C45.1068 3.74767 44.8893 4.46214 44.8893 5.1766C44.8582 6.21723 45.3088 7.19573 46.1013 7.8636C46.8937 8.57806 48.2455 9.13721 50.1256 9.55656C51.2754 9.80507 52.0057 10.0846 52.3165 10.3642C52.6117 10.5972 52.7826 10.9544 52.7826 11.3272C52.7826 11.7155 52.5961 12.0882 52.2854 12.3212C51.9591 12.6163 51.4774 12.7561 50.8714 12.7561C50.0479 12.7561 49.4264 12.4765 48.9758 11.9174C48.6961 11.5602 48.5252 11.0631 48.432 10.3953Z" fill="white"/>
<path fill-rule="evenodd" clip-rule="evenodd" d="M0.978894 1.37131V15.2412H5.28292V9.60316H5.65583C6.02875 9.60316 6.40166 9.71188 6.71242 9.92933C6.94549 10.1002 7.1941 10.4574 7.48932 11.001L9.78894 15.2723H14.6679L12.5858 11.2495C12.4149 10.9389 12.2129 10.6438 11.9798 10.3797C11.7778 10.1157 11.5603 9.8672 11.2961 9.64976C10.9543 9.43231 10.5658 9.24593 10.1774 9.13721C10.7057 9.04402 11.2184 8.85763 11.6846 8.59359C12.881 7.91019 13.5802 6.60552 13.5336 5.23873C13.5491 4.43107 13.3316 3.65448 12.881 2.98662C12.477 2.38088 11.871 1.93046 11.1874 1.71301C10.4882 1.48003 9.46265 1.37131 8.14192 1.37131H0.978894ZM7.10087 6.99382H5.28292V4.18256H7.17856C7.95546 4.18256 8.49929 4.30682 8.77897 4.5398C9.29173 5.02128 9.35388 5.8134 8.93435 6.37255C8.76344 6.60552 8.51483 6.76084 8.23514 6.80744C7.86223 6.90063 7.48932 6.96276 7.10087 6.99382Z" fill="white"/>
<path d="M4.0865 26.89L0 27.1541C0.124304 28.5519 0.637058 29.7013 1.5538 30.6332C2.47054 31.5496 4.10203 32 6.46381 32C7.80008 32 8.91881 31.7981 9.80448 31.4098C10.6435 31.0526 11.3583 30.4624 11.871 29.7013C12.3527 28.9713 12.6169 28.1171 12.6169 27.2473C12.6169 26.5328 12.4304 25.8183 12.0575 25.1971C11.7001 24.5913 11.1097 24.0788 10.2862 23.6594C9.46265 23.2401 8.12638 22.8362 6.24628 22.4324C5.48492 22.2771 5.00324 22.1062 4.80124 21.9199C4.61479 21.7801 4.49048 21.5626 4.49048 21.3297C4.47495 21.019 4.61479 20.7395 4.8634 20.5531C5.112 20.3356 5.48492 20.2269 5.98213 20.2269C6.58811 20.2114 7.06979 20.3512 7.41163 20.6463C7.769 20.9414 7.98653 21.3918 8.0953 22.0131L12.1352 21.7801C11.9643 20.3356 11.4204 19.295 10.4882 18.6271C9.55587 17.9593 8.20407 17.6331 6.43273 17.6331C4.9877 17.6331 3.83789 17.8195 3.01437 18.1767C2.25301 18.4718 1.61595 18.9999 1.14981 19.6678C0.745824 20.258 0.528292 20.9724 0.528292 21.6869C0.497216 22.7275 0.947818 23.706 1.74026 24.3739C2.53269 25.0884 3.8845 25.6475 5.7646 26.0669C6.92995 26.3154 7.66024 26.5949 7.971 26.8745C8.26622 27.1075 8.43714 27.4647 8.43714 27.8375C8.43714 28.2258 8.25068 28.583 7.93992 28.8315C7.61362 29.1266 7.13194 29.2664 6.52596 29.2664C5.70245 29.2664 5.06539 28.9713 4.63033 28.4122C4.35064 28.0549 4.17972 27.5579 4.0865 26.89Z" fill="white"/>
</g>
<defs>
<clipPath id="clip0_57_586">
<rect width="86.4561" height="32" fill="white"/>
</clipPath>
</defs>
</svg>
