<svg width="555" height="391" viewBox="0 0 555 391" fill="none" xmlns="http://www.w3.org/2000/svg">
<g clip-path="url(#clip0_57_597)">
<path d="M122.983 39.1669H87.5897C84.187 39.17 80.9245 40.5227 78.5184 42.9283C76.1123 45.3338 74.7592 48.5955 74.7562 51.9974V90.3607C74.3037 90.3337 73.8512 90.2932 73.4053 90.2391C65.0203 89.3572 57.0484 86.1508 50.3886 80.9816C43.7287 75.8124 38.6457 68.886 35.7126 60.9832C32.7796 53.0803 32.113 44.5155 33.7883 36.2542C35.4635 27.9929 39.4138 20.3638 45.1939 14.2271C50.9739 8.09026 58.3538 3.68985 66.5015 1.52193C74.6491 -0.645984 83.2406 -0.495182 91.3071 1.95734C99.3736 4.40987 106.594 9.06658 112.155 15.4024C117.716 21.7383 121.396 29.5013 122.781 37.8163C122.855 38.262 122.922 38.7145 122.983 39.1669Z" fill="#F4ECFF"/>
<path d="M540.816 37.8163H87.5897C83.829 37.8204 80.2236 39.3158 77.5643 41.9744C74.9051 44.633 73.4094 48.2376 73.4053 51.9974V291.05C73.4094 294.81 74.9051 298.415 77.5643 301.073C80.2236 303.732 83.829 305.227 87.5897 305.232H540.816C544.576 305.227 548.182 303.732 550.841 301.073C553.5 298.415 554.996 294.81 555 291.05V51.9974C554.996 48.2376 553.5 44.633 550.841 41.9744C548.182 39.3158 544.576 37.8204 540.816 37.8163ZM553.649 291.05C553.646 294.452 552.293 297.714 549.887 300.12C547.481 302.525 544.218 303.878 540.816 303.881H87.5897C84.187 303.878 80.9245 302.525 78.5184 300.12C76.1123 297.714 74.7593 294.452 74.7562 291.05V51.9974C74.7593 48.5955 76.1123 45.3338 78.5184 42.9282C80.9245 40.5227 84.187 39.1699 87.5897 39.1669H540.816C544.218 39.1699 547.481 40.5227 549.887 42.9282C552.293 45.3338 553.646 48.5955 553.649 51.9974V291.05Z" fill="#21004C" fill-opacity="0.5"/>
<path d="M518.526 76.5575H109.88C109.7 76.5575 109.529 76.4864 109.402 76.3597C109.275 76.2331 109.204 76.0613 109.204 75.8822C109.204 75.7031 109.275 75.5313 109.402 75.4047C109.529 75.2781 109.7 75.2069 109.88 75.2069H518.526C518.705 75.2069 518.877 75.2781 519.003 75.4047C519.13 75.5313 519.201 75.7031 519.201 75.8822C519.201 76.0613 519.13 76.2331 519.003 76.3597C518.877 76.4864 518.705 76.5575 518.526 76.5575Z" fill="#21004C" fill-opacity="0.5"/>
<path d="M225.381 276.194C225.202 276.194 225.03 276.123 224.903 275.996C224.777 275.87 224.706 275.698 224.706 275.519V53.348C224.706 53.1689 224.777 52.9972 224.903 52.8705C225.03 52.7439 225.202 52.6727 225.381 52.6727C225.56 52.6727 225.732 52.7439 225.859 52.8705C225.985 52.9972 226.056 53.1689 226.056 53.348V275.519C226.056 275.698 225.985 275.87 225.859 275.996C225.732 276.123 225.56 276.194 225.381 276.194V276.194Z" fill="#21004C" fill-opacity="0.5"/>
<path d="M327.374 276.194C327.195 276.194 327.023 276.123 326.896 275.996C326.77 275.87 326.698 275.698 326.698 275.519V53.348C326.698 53.1689 326.77 52.9972 326.896 52.8705C327.023 52.7439 327.195 52.6727 327.374 52.6727C327.553 52.6727 327.725 52.7439 327.852 52.8705C327.978 52.9972 328.049 53.1689 328.049 53.348V275.519C328.049 275.698 327.978 275.87 327.852 275.996C327.725 276.123 327.553 276.194 327.374 276.194V276.194Z" fill="#21004C" fill-opacity="0.5"/>
<path d="M429.367 276.194C429.187 276.194 429.016 276.123 428.889 275.996C428.762 275.87 428.691 275.698 428.691 275.519V53.348C428.691 53.1689 428.762 52.9972 428.889 52.8705C429.016 52.7439 429.187 52.6727 429.367 52.6727C429.546 52.6727 429.718 52.7439 429.844 52.8705C429.971 52.9972 430.042 53.1689 430.042 53.348V275.519C430.042 275.698 429.971 275.87 429.844 275.996C429.718 276.123 429.546 276.194 429.367 276.194V276.194Z" fill="#21004C" fill-opacity="0.5"/>
<path d="M159.806 146.259H135.125C134.319 146.259 133.546 145.938 132.976 145.368C132.407 144.799 132.086 144.026 132.085 143.221V114.102C132.086 113.297 132.407 112.524 132.976 111.955C133.546 111.385 134.319 111.064 135.125 111.064H159.806C160.611 111.064 161.384 111.385 161.954 111.955C162.524 112.524 162.844 113.297 162.845 114.102V143.221C162.844 144.026 162.524 144.799 161.954 145.368C161.384 145.938 160.611 146.259 159.806 146.259V146.259Z" fill="#9346F6"/>
<path d="M194.929 229.32H170.248C169.442 229.319 168.67 228.999 168.1 228.429C167.53 227.86 167.209 227.087 167.208 226.281V197.163C167.209 196.358 167.53 195.585 168.1 195.015C168.67 194.446 169.442 194.125 170.248 194.124H194.929C195.735 194.125 196.507 194.446 197.077 195.015C197.647 195.585 197.968 196.358 197.968 197.163V226.281C197.968 227.087 197.647 227.86 197.077 228.429C196.507 228.999 195.735 229.319 194.929 229.32V229.32Z" fill="#9346F6"/>
<path d="M274.632 163.817H249.951C249.145 163.816 248.373 163.496 247.803 162.926C247.233 162.356 246.913 161.584 246.912 160.778V131.66C246.913 130.854 247.233 130.082 247.803 129.512C248.373 128.943 249.145 128.622 249.951 128.621H274.632C275.438 128.622 276.21 128.943 276.78 129.512C277.35 130.082 277.671 130.854 277.672 131.66V160.778C277.671 161.584 277.35 162.356 276.78 162.926C276.21 163.496 275.438 163.816 274.632 163.817V163.817Z" fill="#9346F6"/>
<path d="M377.976 132.078H353.295C352.489 132.078 351.716 131.757 351.146 131.187C350.577 130.618 350.256 129.845 350.255 129.04V99.9214C350.256 99.1157 350.577 98.3433 351.146 97.7736C351.716 97.2039 352.489 96.8835 353.295 96.8826H377.976C378.781 96.8835 379.554 97.2039 380.124 97.7736C380.694 98.3433 381.014 99.1157 381.015 99.9214V129.04C381.014 129.845 380.694 130.618 380.124 131.187C379.554 131.757 378.781 132.078 377.976 132.078V132.078Z" fill="#9346F6"/>
<path d="M473.214 132.078H448.533C447.727 132.078 446.954 131.757 446.385 131.187C445.815 130.618 445.494 129.845 445.493 129.04V99.9214C445.494 99.1157 445.815 98.3433 446.385 97.7736C446.954 97.2039 447.727 96.8835 448.533 96.8826H473.214C474.02 96.8835 474.792 97.2039 475.362 97.7736C475.932 98.3433 476.252 99.1157 476.253 99.9214V129.04C476.252 129.845 475.932 130.618 475.362 131.187C474.792 131.757 474.02 132.078 473.214 132.078V132.078Z" fill="#9346F6"/>
<path d="M517.118 140.182H492.437C491.631 140.181 490.859 139.861 490.289 139.291C489.719 138.721 489.399 137.949 489.398 137.143V108.025C489.399 107.219 489.719 106.447 490.289 105.877C490.859 105.307 491.631 104.987 492.437 104.986H517.118C517.924 104.987 518.697 105.307 519.266 105.877C519.836 106.447 520.157 107.219 520.158 108.025V137.143C520.157 137.949 519.836 138.721 519.266 139.291C518.697 139.861 517.924 140.181 517.118 140.182Z" fill="#DDC3FF"/>
<path d="M497.53 192.179H472.849C472.043 192.178 471.271 191.858 470.701 191.288C470.131 190.719 469.81 189.946 469.81 189.14V160.022C469.81 159.217 470.131 158.444 470.701 157.874C471.271 157.305 472.043 156.984 472.849 156.983H497.53C498.336 156.984 499.108 157.305 499.678 157.874C500.248 158.444 500.569 159.217 500.569 160.022V189.141C500.569 189.946 500.248 190.719 499.678 191.288C499.108 191.858 498.336 192.178 497.53 192.179Z" fill="#DDC3FF"/>
<path d="M413.774 181.375H389.093C388.288 181.374 387.515 181.053 386.945 180.484C386.375 179.914 386.055 179.141 386.054 178.336V149.218C386.055 148.412 386.375 147.639 386.945 147.07C387.515 146.5 388.288 146.18 389.093 146.179H413.774C414.58 146.18 415.353 146.5 415.923 147.07C416.492 147.639 416.813 148.412 416.814 149.218V178.336C416.813 179.141 416.492 179.914 415.923 180.484C415.353 181.053 414.58 181.374 413.774 181.375Z" fill="#DD2BC3"/>
<path d="M365.818 192.179H341.137C340.331 192.178 339.558 191.858 338.988 191.288C338.419 190.719 338.098 189.946 338.097 189.14V160.022C338.098 159.217 338.419 158.444 338.988 157.874C339.558 157.305 340.331 156.984 341.137 156.983H365.818C366.623 156.984 367.396 157.305 367.966 157.874C368.536 158.444 368.856 159.217 368.857 160.022V189.141C368.856 189.946 368.536 190.719 367.966 191.288C367.396 191.858 366.623 192.178 365.818 192.179V192.179Z" fill="#DDC3FF"/>
<path d="M262.474 238.099H237.793C236.987 238.098 236.214 237.778 235.645 237.208C235.075 236.638 234.754 235.866 234.753 235.06V205.942C234.754 205.136 235.075 204.364 235.645 203.794C236.214 203.225 236.987 202.904 237.793 202.903H262.474C263.28 202.904 264.052 203.225 264.622 203.794C265.192 204.364 265.512 205.136 265.513 205.942V235.06C265.512 235.866 265.192 236.638 264.622 237.208C264.052 237.778 263.28 238.098 262.474 238.099Z" fill="#DDC3FF"/>
<path d="M137.516 199.608H112.835C112.029 199.607 111.256 199.286 110.687 198.716C110.117 198.147 109.796 197.374 109.795 196.569V167.45C109.796 166.645 110.117 165.872 110.687 165.303C111.256 164.733 112.029 164.413 112.835 164.412H137.516C138.322 164.413 139.094 164.733 139.664 165.303C140.234 165.872 140.554 166.645 140.555 167.45V196.569C140.554 197.374 140.234 198.147 139.664 198.716C139.094 199.286 138.322 199.607 137.516 199.608V199.608Z" fill="#DD2BC3"/>
<path d="M207.087 146.259H182.406C181.6 146.259 180.828 145.938 180.258 145.368C179.688 144.799 179.368 144.026 179.367 143.221V114.102C179.368 113.297 179.688 112.524 180.258 111.955C180.828 111.385 181.6 111.064 182.406 111.064H207.087C207.893 111.064 208.666 111.385 209.235 111.955C209.805 112.524 210.126 113.297 210.127 114.102V143.221C210.126 144.026 209.805 144.799 209.235 145.368C208.666 145.938 207.893 146.259 207.087 146.259V146.259Z" fill="#DDC3FF"/>
<path d="M186.881 65.5033H148.38C147.663 65.5033 146.976 65.2187 146.47 64.7121C145.963 64.2056 145.678 63.5185 145.678 62.8021C145.678 62.0857 145.963 61.3987 146.47 60.8921C146.976 60.3855 147.663 60.101 148.38 60.101H186.881C187.597 60.101 188.284 60.3855 188.791 60.8921C189.298 61.3987 189.582 62.0857 189.582 62.8021C189.582 63.5185 189.298 64.2056 188.791 64.7121C188.284 65.2187 187.597 65.5033 186.881 65.5033Z" fill="#DDC3FF"/>
<path d="M295.628 65.5033H257.127C256.411 65.5033 255.723 65.2187 255.217 64.7121C254.71 64.2056 254.425 63.5185 254.425 62.8021C254.425 62.0857 254.71 61.3987 255.217 60.8921C255.723 60.3855 256.411 60.101 257.127 60.101H295.628C296.344 60.101 297.031 60.3855 297.538 60.8921C298.045 61.3987 298.329 62.0857 298.329 62.8021C298.329 63.5185 298.045 64.2056 297.538 64.7121C297.031 65.2187 296.344 65.5033 295.628 65.5033Z" fill="#DDC3FF"/>
<path d="M397.621 65.5033H359.12C358.403 65.5033 357.716 65.2187 357.21 64.7121C356.703 64.2056 356.418 63.5185 356.418 62.8021C356.418 62.0857 356.703 61.3987 357.21 60.8921C357.716 60.3855 358.403 60.101 359.12 60.101H397.621C398.337 60.101 399.024 60.3855 399.531 60.8921C400.038 61.3987 400.322 62.0857 400.322 62.8021C400.322 63.5185 400.038 64.2056 399.531 64.7121C399.024 65.2187 398.337 65.5033 397.621 65.5033Z" fill="#DDC3FF"/>
<path d="M492.859 65.5033H454.358C453.642 65.5033 452.955 65.2187 452.448 64.7121C451.941 64.2056 451.656 63.5185 451.656 62.8021C451.656 62.0857 451.941 61.3987 452.448 60.8921C452.955 60.3855 453.642 60.101 454.358 60.101H492.859C493.575 60.101 494.263 60.3855 494.769 60.8921C495.276 61.3987 495.561 62.0857 495.561 62.8021C495.561 63.5185 495.276 64.2056 494.769 64.7121C494.263 65.2187 493.575 65.5033 492.859 65.5033Z" fill="#DDC3FF"/>
<path d="M100.648 263.29C99.6599 263.193 98.7049 262.881 97.8504 262.375C96.9959 261.87 96.2627 261.183 95.7024 260.363C95.1422 259.544 94.7685 258.611 94.6077 257.632C94.4469 256.652 94.5028 255.649 94.7717 254.693L77.458 238.58L86.6122 236.258L103.637 250.064C105.213 250.622 106.53 251.738 107.337 253.202C108.145 254.665 108.387 256.374 108.019 258.004C107.65 259.635 106.696 261.073 105.338 262.047C103.98 263.022 102.311 263.464 100.648 263.29V263.29Z" fill="#FFB8B8"/>
<path d="M124.555 382.386H132.836L136.776 350.452H124.554L124.555 382.386Z" fill="#F4ECFF"/>
<path d="M148.807 390.072L122.781 390.073L122.781 380.02L138.751 380.02C141.418 380.019 143.975 381.079 145.861 382.964C147.747 384.849 148.807 387.406 148.807 390.072V390.072L148.807 390.072Z" fill="#21004C"/>
<path d="M67.7778 376.408L75.7805 378.538L87.8042 348.693L75.994 345.55L67.7778 376.408Z" fill="#F4ECFF"/>
<path d="M89.2356 390.075L64.0858 383.382L66.6723 373.667L82.1051 377.774C84.6822 378.46 86.8812 380.141 88.2184 382.448C89.5557 384.755 89.9216 387.498 89.2356 390.075V390.075V390.075Z" fill="#21004C"/>
<path d="M135.063 376.34H122.427C121.629 376.342 120.859 376.046 120.268 375.51C119.677 374.973 119.309 374.235 119.235 373.441L111.565 293.802C111.508 293.218 111.251 292.672 110.836 292.257C110.421 291.841 109.875 291.583 109.291 291.526C108.707 291.469 108.121 291.617 107.633 291.944C107.146 292.271 106.788 292.757 106.62 293.32L84.3477 367.736C84.1122 368.527 83.5803 369.197 82.8629 369.605C82.1456 370.014 81.2983 370.129 80.4977 369.928L68.7428 366.99C68.3325 366.887 67.9466 366.705 67.6072 366.452C67.2678 366.2 66.9816 365.883 66.7652 365.52C66.5488 365.157 66.4064 364.754 66.3462 364.336C66.2859 363.918 66.3091 363.491 66.4143 363.082C66.6063 362.332 85.6043 288.105 85.7701 287.342C90.0746 255.625 95.2245 247.126 97.991 242.561C98.2201 242.183 98.4305 241.835 98.62 241.507C98.8571 241.096 100.317 237.02 101.243 234.373C101.363 233.942 101.572 233.541 101.855 233.195C102.138 232.849 102.49 232.565 102.888 232.362C114.513 226.418 128.114 230.533 132.006 231.935C132.651 232.163 133.205 232.593 133.585 233.161C145.26 250.767 139.531 353.02 138.264 373.339C138.211 374.152 137.851 374.914 137.256 375.471C136.662 376.029 135.878 376.339 135.063 376.34V376.34Z" fill="#21004C"/>
<path d="M102.455 174.62C111.617 174.62 119.045 167.195 119.045 158.034C119.045 148.874 111.617 141.449 102.455 141.449C93.2927 141.449 85.8652 148.874 85.8652 158.034C85.8652 167.195 93.2927 174.62 102.455 174.62Z" fill="#F4ECFF"/>
<path d="M100.697 237.593L100.578 237.478C100.354 237.261 78.2503 215.612 81.1109 195.593C82.3343 187.031 89.2638 181.56 101.15 179.77C105.517 179.122 109.971 180.071 113.693 182.444C117.416 184.816 120.157 188.452 121.413 192.683L133.166 232.852L100.697 237.593Z" fill="#DDC3FF"/>
<path d="M89.384 252.991L73.6336 237.344C72.5567 236.268 71.7748 234.933 71.3632 233.468C70.9515 232.002 70.924 230.456 71.2832 228.976L78.9081 197.968C79.1365 197.039 79.5532 196.166 80.1324 195.404C80.7117 194.643 81.4411 194.008 82.2756 193.54C83.1101 193.071 84.0319 192.779 84.984 192.681C85.936 192.583 86.898 192.682 87.8104 192.97C89.5496 193.531 91.0022 194.746 91.8607 196.359C92.7191 197.971 92.916 199.855 92.4096 201.61L84.3823 228.889L97.3632 242.825L89.384 252.991Z" fill="#DDC3FF"/>
<path d="M173.863 199.591C173.447 200.492 172.838 201.291 172.079 201.931C171.321 202.572 170.431 203.038 169.472 203.297C168.514 203.557 167.51 203.603 166.532 203.433C165.554 203.262 164.625 202.879 163.81 202.311L142.784 213.207L143.713 203.951L162.354 192.418C163.399 191.114 164.887 190.238 166.535 189.957C168.183 189.676 169.876 190.009 171.295 190.893C172.714 191.777 173.759 193.151 174.232 194.754C174.706 196.357 174.574 198.078 173.863 199.591H173.863Z" fill="#F4ECFF"/>
<path d="M161.514 206.48L141.017 215.336C139.652 215.92 138.161 216.144 136.685 215.986C135.209 215.828 133.798 215.292 132.589 214.432L106.524 195.761C105.746 195.203 105.091 194.492 104.599 193.672C104.107 192.851 103.789 191.938 103.664 190.989C103.539 190.041 103.61 189.077 103.873 188.157C104.135 187.237 104.584 186.38 105.191 185.641C106.358 184.234 108.026 183.338 109.843 183.14C111.66 182.942 113.482 183.459 114.924 184.582L137.273 202.168L155.038 195.297L161.514 206.48Z" fill="#DDC3FF"/>
<path d="M105.205 163.349C107.252 160.785 111.075 160.648 113.887 158.957C117.569 156.741 119.091 151.791 117.905 147.662C116.718 143.532 113.218 140.314 109.206 138.775C105.194 137.235 100.73 137.216 96.4969 137.96C90.1948 139.068 83.9902 142.009 80.1466 147.123C76.303 152.238 75.3249 159.728 78.8083 165.095C80.4092 167.561 82.8807 169.597 83.5198 172.467C84.359 176.235 81.7154 179.869 78.8834 182.492C75.657 185.481 71.9553 187.985 69.1286 191.354C66.3019 194.723 64.417 199.327 65.7068 203.531C66.7875 207.053 69.9324 209.649 73.3809 210.948C76.8294 212.248 80.5853 212.436 84.27 212.508C87.8479 212.578 91.6483 212.491 94.6624 210.562C97.8891 208.497 99.612 204.58 99.7392 200.752C99.8665 196.924 98.587 193.174 96.8722 189.749C95.8501 187.707 94.6617 185.729 93.9825 183.549C93.3033 181.37 93.1857 178.896 94.2733 176.889C95.4167 174.779 97.7297 173.506 100.085 173.044C100.207 173.02 100.337 172.998 100.472 172.979C101.142 172.892 101.788 172.67 102.37 172.327C102.952 171.983 103.458 171.526 103.858 170.981C104.258 170.436 104.543 169.816 104.696 169.158C104.85 168.5 104.868 167.818 104.75 167.153C104.482 165.658 104.505 164.226 105.205 163.349Z" fill="#34066E"/>
<path d="M326.396 383.093H318.115L314.176 351.159L326.398 351.16L326.396 383.093Z" fill="#F4ECFF"/>
<path d="M312.2 380.727H328.171V390.78H302.145C302.145 389.46 302.405 388.152 302.91 386.933C303.416 385.713 304.156 384.605 305.09 383.671C306.024 382.738 307.132 381.997 308.352 381.492C309.572 380.987 310.88 380.727 312.2 380.727Z" fill="#21004C"/>
<path d="M386.481 373.715L378.949 377.154L362.094 349.745L373.211 344.668L386.481 373.715Z" fill="#F4ECFF"/>
<path d="M372.585 377.46L387.112 370.826L391.29 379.97L367.617 390.78C367.068 389.58 366.761 388.283 366.714 386.963C366.667 385.644 366.88 384.328 367.341 383.091C367.803 381.854 368.503 380.72 369.403 379.754C370.303 378.788 371.384 378.008 372.585 377.46V377.46Z" fill="#21004C"/>
<path d="M362.366 275.422C363.159 274.825 363.812 274.062 364.278 273.185C364.744 272.309 365.013 271.341 365.064 270.349C365.116 269.358 364.949 268.367 364.577 267.447C364.204 266.527 363.634 265.7 362.907 265.024L372.641 242.942L360.274 245.037L352.927 265.685C351.872 266.982 351.329 268.62 351.401 270.29C351.474 271.96 352.157 273.545 353.32 274.745C354.484 275.945 356.047 276.677 357.714 276.802C359.381 276.927 361.036 276.436 362.366 275.422Z" fill="#A0616A"/>
<path d="M325.868 374.673H317.958C317.19 374.67 316.452 374.378 315.891 373.856C315.329 373.334 314.984 372.619 314.926 371.854L310.612 256.677C310.58 256.236 310.645 255.793 310.802 255.379C310.959 254.965 311.204 254.591 311.521 254.282C311.838 253.973 312.218 253.737 312.636 253.59C313.054 253.444 313.498 253.39 313.939 253.433L359.69 258.29C360.432 258.363 361.121 258.705 361.627 259.252C362.132 259.799 362.42 260.513 362.434 261.257L363.393 312.063C363.398 312.339 363.451 312.612 363.551 312.869L382.318 361.526C382.463 361.901 382.532 362.302 382.521 362.705C382.509 363.108 382.418 363.504 382.252 363.871C382.085 364.238 381.848 364.569 381.553 364.843C381.258 365.118 380.911 365.331 380.533 365.47L372.516 368.423C371.82 368.679 371.054 368.672 370.363 368.403C369.671 368.134 369.102 367.621 368.763 366.961L345.708 322.143C345.582 321.899 345.49 321.64 345.435 321.371L341.496 302.4C341.382 301.85 341.076 301.359 340.632 301.014C340.188 300.669 339.636 300.494 339.075 300.519C338.514 300.545 337.98 300.769 337.569 301.152C337.158 301.536 336.897 302.053 336.833 302.611L328.888 371.979C328.804 372.721 328.449 373.405 327.892 373.902C327.335 374.398 326.615 374.673 325.868 374.673V374.673Z" fill="#34066E"/>
<path d="M329.808 166.621C338.97 166.621 346.397 159.195 346.397 150.035C346.397 140.875 338.97 133.449 329.808 133.449C320.645 133.449 313.218 140.875 313.218 150.035C313.218 159.195 320.645 166.621 329.808 166.621Z" fill="#F4ECFF"/>
<path d="M341.185 267.209C329.934 267.085 318.952 263.759 309.524 257.621L309.363 257.509L309.38 257.314L315.726 183.426C315.944 180.92 317.063 178.577 318.876 176.831C320.689 175.086 323.073 174.055 325.586 173.931C333.811 173.553 344.858 174.029 350.771 178.433C359.708 185.087 364.015 195.108 362.588 205.925C359.63 228.358 362.981 258.618 363.373 261.994L363.402 262.238L363.179 262.34C356.289 265.544 348.783 267.206 341.185 267.209V267.209Z" fill="#9346F6"/>
<path d="M363.297 262.119C362.829 262.119 362.367 262.021 361.939 261.832C361.511 261.644 361.127 261.369 360.811 261.024L357.182 257.066C356.79 256.636 356.515 256.112 356.384 255.545C356.252 254.978 356.269 254.387 356.432 253.828L364.707 225.828L352.117 199.395C351.529 198.157 351.385 196.755 351.709 195.424C351.995 194.256 352.628 193.202 353.525 192.4C354.423 191.599 355.542 191.089 356.735 190.936C357.928 190.784 359.14 190.997 360.21 191.547C361.28 192.097 362.158 192.958 362.728 194.017L379.813 221.732C380.507 222.857 380.914 224.134 380.999 225.453C381.084 226.771 380.844 228.09 380.299 229.294L366.379 260.131C366.149 260.641 365.797 261.086 365.353 261.425C364.908 261.765 364.387 261.989 363.835 262.076C363.657 262.105 363.477 262.119 363.297 262.119V262.119Z" fill="#9346F6"/>
<path d="M246.362 208.633C247.158 209.225 248.075 209.636 249.048 209.836C250.021 210.036 251.025 210.02 251.991 209.79C252.957 209.559 253.861 209.12 254.638 208.503C255.416 207.885 256.049 207.105 256.492 206.217L280.429 209.321L274.928 198.051L253.041 196.832C251.499 196.186 249.774 196.128 248.192 196.669C246.61 197.209 245.282 198.312 244.458 199.766C243.635 201.221 243.374 202.927 243.725 204.561C244.076 206.195 245.014 207.644 246.362 208.633V208.633Z" fill="#F4ECFF"/>
<path d="M299.122 214.788C298.705 214.788 298.289 214.759 297.876 214.702L260.219 209.48C259.604 209.396 259.019 209.159 258.518 208.792C258.016 208.426 257.614 207.94 257.348 207.379C257.262 207.198 257.19 207.011 257.133 206.819H257.133C256.987 206.321 256.947 205.797 257.013 205.282C257.08 204.767 257.253 204.271 257.521 203.826L260.638 198.661C260.973 198.109 261.444 197.652 262.007 197.335C262.569 197.017 263.204 196.849 263.85 196.847H263.855L296.679 196.885L321.194 174.926C322.334 173.907 323.791 173.311 325.319 173.239C326.66 173.176 327.989 173.522 329.13 174.231C330.271 174.939 331.171 175.976 331.71 177.206C332.249 178.436 332.403 179.8 332.151 181.119C331.899 182.438 331.253 183.649 330.299 184.594L305.837 211.793C304.991 212.736 303.955 213.489 302.798 214.005C301.641 214.521 300.389 214.788 299.122 214.788V214.788Z" fill="#9346F6"/>
<path d="M331.694 164.79C333.21 161.282 334.493 156.61 331.585 154.13C329.898 152.692 327.469 152.689 325.259 152.51C319.033 152.006 312.624 149.142 309.581 143.688C306.538 138.235 308.238 130.125 313.979 127.665C317.848 126.006 322.285 127.136 326.336 128.285L338.498 131.733C342.111 132.757 345.905 133.887 348.507 136.596C352.656 140.916 352.346 148.219 349.05 153.22C345.755 158.221 340.792 163.438 335.111 165.337L331.694 164.79Z" fill="#34066E"/>
<path d="M499.484 391H0.804137C0.698326 391 0.593497 390.98 0.495652 390.939C0.397807 390.899 0.308878 390.84 0.233949 390.765C0.159021 390.691 0.0995693 390.602 0.0590061 390.504C0.0184429 390.406 -0.00244141 390.302 -0.00244141 390.196C-0.00244141 390.09 0.0184429 389.985 0.0590061 389.888C0.0995693 389.79 0.159021 389.701 0.233949 389.627C0.308878 389.552 0.397807 389.493 0.495652 389.452C0.593497 389.412 0.698326 389.392 0.804137 389.392H499.484C499.59 389.392 499.694 389.412 499.792 389.452C499.89 389.493 499.979 389.552 500.054 389.627C500.129 389.701 500.188 389.79 500.229 389.888C500.269 389.985 500.29 390.09 500.29 390.196C500.29 390.302 500.269 390.406 500.229 390.504C500.188 390.602 500.129 390.691 500.054 390.765C499.979 390.84 499.89 390.899 499.792 390.939C499.694 390.98 499.59 391 499.484 391V391Z" fill="#3F3D56"/>
</g>
<defs>
<clipPath id="clip0_57_597">
<rect width="555" height="391" fill="white"/>
</clipPath>
</defs>
</svg>
